<?xml version="1.0" standalone="no"?><svg xmlns:xlink="http://www.w3.org/1999/xlink" xmlns="http://www.w3.org/2000/svg" viewBox="0 0 1920 2194.285714285714" preserveAspectRatio="xMaxYMax slice"><g transform="scale(3.8974879472215176)"><rect x="0" y="0" width="492.625" height="563" fill="#1b1a25"/><path d="M 70.38 140.76 A 70.38 70.38 0 0 1  140.76 70.38 L 70.38 140.76 A 70.38 70.38 0 0 0 140.76 70.38" fill="#966464"/><path d="M 351.88 70.38 A 70.38 70.38 0 0 1  422.26 140.76 L 351.88 70.38 A 70.38 70.38 0 0 0 422.26 140.76" fill="#362a33"/><rect x="70.375" y="140.75" width="70.375" height="70.375" fill="#1b1a25"/><rect x="140.75" y="140.75" width="70.375" height="70.375" fill="#1b1a25"/><path d="M 281.5 140.75 A 70.38 70.38 0 0 1  351.88 211.13 L 281.5 140.75 A 70.38 70.38 0 0 0 351.88 211.13" fill="#4a7784"/><rect x="351.875" y="140.75" width="70.375" height="70.375" fill="#1b1a25"/><rect x="0" y="211.125" width="70.375" height="70.375" fill="#1b1a25"/><path d="M 35.19 211.13 A 35.19 35.19 0 0 1  70.38 246.32 L 35.19 211.13 A 35.19 35.19 0 0 0 70.38 246.32" fill="#4f3940"/><rect x="211.125" y="211.125" width="70.375" height="70.375" fill="#1b1a25"/><path d="M 211.13 211.13 A 35.19 35.19 0 0 1  246.32 246.32 L 211.13 211.13 A 35.19 35.19 0 0 0 246.32 246.32" fill="#7c5557"/><path d="M 422.25 351.88 A 70.38 70.38 0 0 1  492.63 281.5 L 422.25 351.88 A 70.38 70.38 0 0 0 492.63 281.5" fill="#392c34"/><path d="M 140.75 351.88 A 70.38 70.38 0 0 1  211.13 422.26 L 140.75 351.88 A 70.38 70.38 0 0 0 211.13 422.26" fill="#352a32"/><path d="M 422.25 351.88 A 70.38 70.38 0 0 1  492.63 422.26 L 422.25 351.88 A 70.38 70.38 0 0 0 492.63 422.26" fill="#49363d"/><path d="M 70.38 492.63 A 70.38 70.38 0 0 1  140.76 422.25 L 70.38 492.63 A 70.38 70.38 0 0 0 140.76 422.25" fill="#58919f"/><path d="M 211.13 422.25 A 70.38 70.38 0 0 1  281.51 492.63 L 211.13 422.25 A 70.38 70.38 0 0 0 281.51 492.63" fill="#221e29"/><rect x="70.375" y="492.625" width="70.375" height="70.375" fill="#1b1a25"/><rect x="281.5" y="492.625" width="70.375" height="70.375" fill="#1b1a25"/><path d="M 281.5 527.81 A 35.19 35.19 0 0 1  316.69 563 L 281.5 527.81 A 35.19 35.19 0 0 0 316.69 563" fill="#4d7d8b"/><path d="M 316.69 563 A 35.19 35.19 0 0 1  351.88 527.81 L 316.69 563 A 35.19 35.19 0 0 0 351.88 527.81" fill="#926262"/><path d="M 351.88 492.63 A 70.38 70.38 0 0 1  422.26 563.01 L 351.88 492.63 A 70.38 70.38 0 0 0 422.26 563.01" fill="#4f3a40"/></g></svg>