<?xml version="1.0" standalone="no"?><svg xmlns:xlink="http://www.w3.org/1999/xlink" xmlns="http://www.w3.org/2000/svg" viewBox="0 0 1920 2194.285714285714" preserveAspectRatio="xMaxYMax slice"><g transform="scale(3.8974879472215176)"><rect x="0" y="0" width="492.625" height="563" fill="#ffffff"/><path d="M 70.38 70.38 A 70.38 70.38 0 0 1  140.76 0 L 70.38 70.38 A 70.38 70.38 0 0 0 140.76 0" fill="#b2ddf5"/><path d="M 211.13 70.38 A 70.38 70.38 0 0 1  281.51 0 L 211.13 70.38 A 70.38 70.38 0 0 0 281.51 0" fill="#ecf7fd"/><rect x="140.75" y="70.375" width="70.375" height="70.375" fill="#ffffff"/><path d="M 140.75 140.75 A 35.19 35.19 0 0 1  175.94 105.56 L 140.75 140.75 A 35.19 35.19 0 0 0 175.94 105.56" fill="#4db0e9"/><rect x="140.75" y="140.75" width="70.375" height="70.375" fill="#ffffff"/><path d="M 140.75 175.94 A 35.19 35.19 0 0 1  175.94 140.75 L 140.75 175.94 A 35.19 35.19 0 0 0 175.94 140.75" fill="#8ecdf1"/><path d="M 140.75 175.94 A 35.19 35.19 0 0 1  175.94 211.13 L 140.75 175.94 A 35.19 35.19 0 0 0 175.94 211.13" fill="#f0baee"/><rect x="422.25" y="140.75" width="70.375" height="70.375" fill="#ffffff"/><path d="M 211.13 211.13 A 70.38 70.38 0 0 1  281.51 281.51 L 211.13 211.13 A 70.38 70.38 0 0 0 281.51 281.51" fill="#1b99e2"/><rect x="281.5" y="281.5" width="70.375" height="70.375" fill="#ffffff"/><rect x="351.875" y="281.5" width="70.375" height="70.375" fill="#ffffff"/><path d="M 387.06 351.88 A 35.19 35.19 0 0 1  422.25 316.69 L 387.06 351.88 A 35.19 35.19 0 0 0 422.25 316.69" fill="#cfe9f9"/><rect x="0" y="351.875" width="70.375" height="70.375" fill="#ffffff"/><path d="M 35.19 351.88 A 35.19 35.19 0 0 1  70.38 387.07 L 35.19 351.88 A 35.19 35.19 0 0 0 70.38 387.07" fill="#8fcdf1"/><path d="M 0 422.25 A 35.19 35.19 0 0 1  35.19 387.06 L 0 422.25 A 35.19 35.19 0 0 0 35.19 387.06" fill="#f0b8ed"/><rect x="140.75" y="351.875" width="70.375" height="70.375" fill="#ffffff"/><rect x="351.875" y="351.875" width="70.375" height="70.375" fill="#ffffff"/><path d="M 387.06 351.88 A 35.19 35.19 0 0 1  422.25 387.07 L 387.06 351.88 A 35.19 35.19 0 0 0 422.25 387.07" fill="#3aa7e6"/><path d="M 70.38 422.25 A 70.38 70.38 0 0 1  140.76 492.63 L 70.38 422.25 A 70.38 70.38 0 0 0 140.76 492.63" fill="#d2ebf9"/><path d="M 140.75 422.25 A 70.38 70.38 0 0 1  211.13 492.63 L 140.75 422.25 A 70.38 70.38 0 0 0 211.13 492.63" fill="#f0bcee"/><path d="M 211.13 492.63 A 70.38 70.38 0 0 1  281.51 422.25 L 211.13 492.63 A 70.38 70.38 0 0 0 281.51 422.25" fill="#e5f3fc"/><rect x="0" y="492.625" width="70.375" height="70.375" fill="#ffffff"/><path d="M 0 492.63 A 35.19 35.19 0 0 1  35.19 527.8199999999999 L 0 492.63 A 35.19 35.19 0 0 0 35.19 527.8199999999999" fill="#98d1f2"/><path d="M 35.19 527.8199999999999 A 35.19 35.19 0 0 1  70.38 492.63 L 35.19 527.8199999999999 A 35.19 35.19 0 0 0 70.38 492.63" fill="#f5d3f4"/><path d="M 35.19 563 A 35.19 35.19 0 0 1  70.38 527.81 L 35.19 563 A 35.19 35.19 0 0 0 70.38 527.81" fill="#afdbf5"/><rect x="281.5" y="492.625" width="70.375" height="70.375" fill="#ffffff"/><path d="M 281.5 527.8199999999999 A 35.19 35.19 0 0 1  316.69 492.63 L 281.5 527.8199999999999 A 35.19 35.19 0 0 0 316.69 492.63" fill="#e792e4"/></g></svg>