<?xml version="1.0" standalone="no"?><svg xmlns:xlink="http://www.w3.org/1999/xlink" xmlns="http://www.w3.org/2000/svg" viewBox="0 0 1920 2194.285714285714" preserveAspectRatio="xMaxYMax slice"><g transform="scale(3.8974879472215176)"><rect x="0" y="0" width="492.625" height="563" fill="#ffffff"/><path d="M 0 0 A 70.38 70.38 0 0 1  70.38 70.38 L 0 0 A 70.38 70.38 0 0 0 70.38 70.38" fill="#5773e9"/><rect x="140.75" y="0" width="70.375" height="70.375" fill="#ffffff"/><path d="M 140.75 0 A 35.19 35.19 0 0 1  175.94 35.19 L 140.75 0 A 35.19 35.19 0 0 0 175.94 35.19" fill="#ff98b0"/><path d="M 175.94 35.19 A 35.19 35.19 0 0 1  211.13 0 L 175.94 35.19 A 35.19 35.19 0 0 0 211.13 0" fill="#ff6a8d"/><rect x="351.875" y="0" width="70.375" height="70.375" fill="#ffffff"/><path d="M 387.06 0 A 35.19 35.19 0 0 1  422.25 35.19 L 387.06 0 A 35.19 35.19 0 0 0 422.25 35.19" fill="#1e44e2"/><path d="M 0 140.76 A 70.38 70.38 0 0 1  70.38 70.38 L 0 140.76 A 70.38 70.38 0 0 0 70.38 70.38" fill="#ff3a69"/><path d="M 70.38 140.76 A 70.38 70.38 0 0 1  140.76 70.38 L 70.38 140.76 A 70.38 70.38 0 0 0 140.76 70.38" fill="#ff7596"/><path d="M 422.25 140.76 A 70.38 70.38 0 0 1  492.63 70.38 L 422.25 140.76 A 70.38 70.38 0 0 0 492.63 70.38" fill="#8ea1f0"/><path d="M 70.38 140.75 A 70.38 70.38 0 0 1  140.76 211.13 L 70.38 140.75 A 70.38 70.38 0 0 0 140.76 211.13" fill="#ffdce4"/><path d="M 0 211.13 A 70.38 70.38 0 0 1  70.38 281.51 L 0 211.13 A 70.38 70.38 0 0 0 70.38 281.51" fill="#ffedf1"/><path d="M 70.38 281.51 A 70.38 70.38 0 0 1  140.76 211.13 L 70.38 281.51 A 70.38 70.38 0 0 0 140.76 211.13" fill="#4060e6"/><path d="M 281.5 211.13 A 70.38 70.38 0 0 1  351.88 281.51 L 281.5 211.13 A 70.38 70.38 0 0 0 351.88 281.51" fill="#e4e8fb"/><rect x="422.25" y="211.125" width="70.375" height="70.375" fill="#ffffff"/><path d="M 457.44 246.32 A 35.19 35.19 0 0 1  492.63 211.13 L 457.44 246.32 A 35.19 35.19 0 0 0 492.63 211.13" fill="#ffa8bc"/><path d="M 422.25 246.31 A 35.19 35.19 0 0 1  457.44 281.5 L 422.25 246.31 A 35.19 35.19 0 0 0 457.44 281.5" fill="#ff416e"/><path d="M 457.44 281.5 A 35.19 35.19 0 0 1  492.63 246.31 L 457.44 281.5 A 35.19 35.19 0 0 0 492.63 246.31" fill="#fdfeff"/><path d="M 211.13 351.88 A 70.38 70.38 0 0 1  281.51 281.5 L 211.13 351.88 A 70.38 70.38 0 0 0 281.51 281.5" fill="#ffccd8"/><path d="M 351.88 351.88 A 70.38 70.38 0 0 1  422.26 281.5 L 351.88 351.88 A 70.38 70.38 0 0 0 422.26 281.5" fill="#ff3b6a"/><path d="M 0 351.88 A 70.38 70.38 0 0 1  70.38 422.26 L 0 351.88 A 70.38 70.38 0 0 0 70.38 422.26" fill="#183fe1"/><path d="M 422.25 422.26 A 70.38 70.38 0 0 1  492.63 351.88 L 422.25 422.26 A 70.38 70.38 0 0 0 492.63 351.88" fill="#7088ec"/><path d="M 0 422.25 A 70.38 70.38 0 0 1  70.38 492.63 L 0 422.25 A 70.38 70.38 0 0 0 70.38 492.63" fill="#ff7e9d"/><path d="M 70.38 492.63 A 70.38 70.38 0 0 1  140.76 422.25 L 70.38 492.63 A 70.38 70.38 0 0 0 140.76 422.25" fill="#ff88a4"/><path d="M 281.5 492.63 A 70.38 70.38 0 0 1  351.88 422.25 L 281.5 492.63 A 70.38 70.38 0 0 0 351.88 422.25" fill="#fff6f8"/><path d="M 140.75 492.63 A 70.38 70.38 0 0 1  211.13 563.01 L 140.75 492.63 A 70.38 70.38 0 0 0 211.13 563.01" fill="#e4e9fc"/><rect x="211.125" y="492.625" width="70.375" height="70.375" fill="#ffffff"/><path d="M 246.31 492.63 A 35.19 35.19 0 0 1  281.5 527.8199999999999 L 246.31 492.63 A 35.19 35.19 0 0 0 281.5 527.8199999999999" fill="#c5cff7"/><path d="M 211.13 527.81 A 35.19 35.19 0 0 1  246.32 563 L 211.13 527.81 A 35.19 35.19 0 0 0 246.32 563" fill="#ff91ab"/><path d="M 246.31 563 A 35.19 35.19 0 0 1  281.5 527.81 L 246.31 563 A 35.19 35.19 0 0 0 281.5 527.81" fill="#8ea1f0"/><path d="M 422.25 492.63 A 70.38 70.38 0 0 1  492.63 563.01 L 422.25 492.63 A 70.38 70.38 0 0 0 492.63 563.01" fill="#fffcfd"/></g></svg>