<svg xmlns="http://www.w3.org/2000/svg" version="1.1" xmlns:xlink="http://www.w3.org/1999/xlink" xmlns:svgjs="http://svgjs.com/svgjs" width="1920" height="1080" preserveAspectRatio="none" viewBox="0 0 1920 1080"><g mask="url(&quot;#SvgjsMask1001&quot;)" fill="none"><rect width="1920" height="1080" x="0" y="0" fill="rgba(255, 255, 255, 1)"></rect><path d="M412.41 175.74 a43.56 43.56 0 1 0 87.12 0 a43.56 43.56 0 1 0 -87.12 0z" stroke="rgba(147, 51, 234, 1)"></path><path d="M911.74 1097.42a86.15 86.15 0 1 0 162-58.68z" fill="rgba(147, 51, 234, 1)"></path><path d="M653.11 1056.54L727.15 1056.54L727.15 1079.53L653.11 1079.53z" stroke="rgba(147, 51, 234, 1)"></path><path d="M690.31 996.58L735.21 996.58L735.21 1041.48L690.31 1041.48z" stroke="rgba(147, 51, 234, 1)"></path><path d="M908.81 928.98L1015.18 928.98L1015.18 1035.35L908.81 1035.35z" stroke="rgba(147, 51, 234, 1)"></path><path d="M1058.62 935.22 a57.56 57.56 0 1 0 115.12 0 a57.56 57.56 0 1 0 -115.12 0z" stroke="rgba(147, 51, 234, 1)"></path><path d="M1668.13 977.83 a24.59 24.59 0 1 0 49.18 0 a24.59 24.59 0 1 0 -49.18 0z" stroke="rgba(147, 51, 234, 1)"></path><path d="M904.9 935.54L963.06 935.54L963.06 993.7L904.9 993.7z" stroke="rgba(147, 51, 234, 1)"></path><path d="M1698.94 67.2L1751.33 67.2L1751.33 119.59L1698.94 119.59z" fill="rgba(147, 51, 234, 1)"></path><path d="M1097.23 918.72 a82.18 82.18 0 1 0 164.36 0 a82.18 82.18 0 1 0 -164.36 0z" fill="rgba(147, 51, 234, 1)"></path><path d="M1009.46 131.02L1014.85 131.02L1014.85 136.41L1009.46 136.41z" stroke="rgba(147, 51, 234, 1)"></path><path d="M1211.53 229.37L1219.24 229.37L1219.24 290.52L1211.53 290.52z" fill="rgba(147, 51, 234, 1)"></path><path d="M1058.3 334.67a34.82 34.82 0 1 0-11.82-68.63z" fill="rgba(147, 51, 234, 1)"></path><path d="M1407.03 921.6 a33.28 33.28 0 1 0 66.56 0 a33.28 33.28 0 1 0 -66.56 0z" fill="rgba(147, 51, 234, 1)"></path><path d="M74.12 463.61L173.24 463.61L173.24 562.73L74.12 562.73z" stroke="rgba(147, 51, 234, 1)"></path><path d="M502.73 479.83L503.3 479.83L503.3 480.4L502.73 480.4z" fill="rgba(147, 51, 234, 1)"></path><path d="M164.38 224.2 a104.87 104.87 0 1 0 209.74 0 a104.87 104.87 0 1 0 -209.74 0z" stroke="rgba(147, 51, 234, 1)"></path><path d="M1907.89 919.35a10.25 10.25 0 1 0 14.41 14.58z" fill="rgba(147, 51, 234, 1)"></path><path d="M1652.77 19.49L1758.69 19.49L1758.69 125.41L1652.77 125.41z" stroke="rgba(147, 51, 234, 1)"></path><path d="M593.35 529.39a5.92 5.92 0 1 0-11.25 3.68z" stroke="rgba(147, 51, 234, 1)"></path><path d="M1223.21 529.71L1228.66 529.71L1228.66 574.58L1223.21 574.58z" stroke="rgba(147, 51, 234, 1)"></path><path d="M1406.82 67.51L1495.65 67.51L1495.65 156.34L1406.82 156.34z" stroke="rgba(147, 51, 234, 1)"></path><path d="M720.87 175.21 a65.05 65.05 0 1 0 130.1 0 a65.05 65.05 0 1 0 -130.1 0z" fill="rgba(147, 51, 234, 1)"></path></g><defs><mask id="SvgjsMask1001"><rect width="1920" height="1080" fill="#ffffff"></rect></mask></defs></svg>