<?xml version="1.0" standalone="no"?><svg xmlns:xlink="http://www.w3.org/1999/xlink" xmlns="http://www.w3.org/2000/svg" viewBox="0 0 1920 2194.285714285714" preserveAspectRatio="xMaxYMax slice"><g transform="scale(3.8974879472215176)"><rect x="0" y="0" width="492.625" height="563" fill="#14303d"/><path d="M 422.25 70.38 A 70.38 70.38 0 0 1  492.63 0 L 422.25 70.38 A 70.38 70.38 0 0 0 492.63 0" fill="#544a51"/><path d="M 140.75 70.38 A 70.38 70.38 0 0 1  211.13 140.76 L 140.75 70.38 A 70.38 70.38 0 0 0 211.13 140.76" fill="#5d4e54"/><path d="M 211.13 140.76 A 70.38 70.38 0 0 1  281.51 70.38 L 211.13 140.76 A 70.38 70.38 0 0 0 281.51 70.38" fill="#2a3944"/><path d="M 70.38 140.75 A 70.38 70.38 0 0 1  140.76 211.13 L 70.38 140.75 A 70.38 70.38 0 0 0 140.76 211.13" fill="#48454d"/><path d="M 0 281.51 A 70.38 70.38 0 0 1  70.38 211.13 L 0 281.51 A 70.38 70.38 0 0 0 70.38 211.13" fill="#8c6162"/><rect x="351.875" y="211.125" width="70.375" height="70.375" fill="#14303d"/><path d="M 351.88 281.5 A 35.19 35.19 0 0 1  387.07 246.31 L 351.88 281.5 A 35.19 35.19 0 0 0 387.07 246.31" fill="#427988"/><path d="M 0 281.5 A 70.38 70.38 0 0 1  70.38 351.88 L 0 281.5 A 70.38 70.38 0 0 0 70.38 351.88" fill="#66b3c3"/><path d="M 422.25 422.26 A 70.38 70.38 0 0 1  492.63 351.88 L 422.25 422.26 A 70.38 70.38 0 0 0 492.63 351.88" fill="#554a51"/><rect x="70.375" y="422.25" width="70.375" height="70.375" fill="#14303d"/><rect x="140.75" y="422.25" width="70.375" height="70.375" fill="#14303d"/><path d="M 175.94 492.63 A 35.19 35.19 0 0 1  211.13 457.44 L 175.94 492.63 A 35.19 35.19 0 0 0 211.13 457.44" fill="#376876"/><rect x="422.25" y="492.625" width="70.375" height="70.375" fill="#14303d"/><path d="M 457.44 492.63 A 35.19 35.19 0 0 1  492.63 527.8199999999999 L 457.44 492.63 A 35.19 35.19 0 0 0 492.63 527.8199999999999" fill="#3a4049"/></g></svg>