<svg xmlns="http://www.w3.org/2000/svg" version="1.1" xmlns:xlink="http://www.w3.org/1999/xlink" xmlns:svgjs="http://svgjs.com/svgjs" width="1920" height="1080" preserveAspectRatio="none" viewBox="0 0 1920 1080"><g mask="url(&quot;#SvgjsMask1014&quot;)" fill="none"><rect width="1920" height="1080" x="0" y="0" fill="rgba(31, 29, 43, 1)"></rect><path d="M719.29 785.14L821.58 785.14L821.58 845.33L719.29 845.33z" stroke="rgba(147, 51, 234, 1)"></path><path d="M1461.15 554.01L1532.92 554.01L1532.92 609.15L1461.15 609.15z" stroke="rgba(147, 51, 234, 1)"></path><path d="M1702.97 0.21L1772.74 0.21L1772.74 63.95L1702.97 63.95z" fill="rgba(147, 51, 234, 1)"></path><path d="M1673.83 248.11a32.28 32.28 0 1 0-53.47-36.18z" stroke="rgba(147, 51, 234, 1)"></path><path d="M1384.9 474.48a20.94 20.94 0 1 0 21.51-35.94z" stroke="rgba(147, 51, 234, 1)"></path><path d="M876.06 564.38 a31.78 31.78 0 1 0 63.56 0 a31.78 31.78 0 1 0 -63.56 0z" stroke="rgba(147, 51, 234, 1)"></path><path d="M170.14 207.91L247.46 207.91L247.46 285.23L170.14 285.23z" fill="rgba(147, 51, 234, 1)"></path><path d="M650.83 1049.84L694.42 1049.84L694.42 1093.43L650.83 1093.43z" fill="rgba(147, 51, 234, 1)"></path><path d="M825.71 443.4 a16.03 16.03 0 1 0 32.06 0 a16.03 16.03 0 1 0 -32.06 0z" stroke="rgba(147, 51, 234, 1)"></path><path d="M992.95 85.21L1091.04 85.21L1091.04 147.89L992.95 147.89z" fill="rgba(147, 51, 234, 1)"></path><path d="M1393.95 291.22L1402.01 291.22L1402.01 302.12L1393.95 302.12z" stroke="rgba(147, 51, 234, 1)"></path><path d="M747.13 119.23a90.93 90.93 0 1 0 51.22-174.49z" fill="rgba(147, 51, 234, 1)"></path><path d="M476.27 797.8a22.23 22.23 0 1 0 44.16 5.18z" stroke="rgba(147, 51, 234, 1)"></path><path d="M1668.11 381.42 a68.12 68.12 0 1 0 136.24 0 a68.12 68.12 0 1 0 -136.24 0z" fill="rgba(147, 51, 234, 1)"></path><path d="M593.9 47.09L668.75 47.09L668.75 50.22L593.9 50.22z" fill="rgba(147, 51, 234, 1)"></path><path d="M131.11 271.48L156.89 271.48L156.89 297.26L131.11 297.26z" stroke="rgba(147, 51, 234, 1)"></path><path d="M1627.98 994.9a106.11 106.11 0 1 0 131.84 166.29z" stroke="rgba(147, 51, 234, 1)"></path><path d="M706.82 936.07L754.8 936.07L754.8 984.85L706.82 984.85z" stroke="rgba(147, 51, 234, 1)"></path><path d="M1338.93 903.79a52.5 52.5 0 1 0-11.89 104.32z" fill="rgba(147, 51, 234, 1)"></path><path d="M1636.04 226 a82.53 82.53 0 1 0 165.06 0 a82.53 82.53 0 1 0 -165.06 0z" fill="rgba(147, 51, 234, 1)"></path><path d="M1041.21 987.99a47.17 47.17 0 1 0-44.52-83.17z" fill="rgba(147, 51, 234, 1)"></path><path d="M1568.67 718.64a61.65 61.65 0 1 0-94.36 79.36z" stroke="rgba(147, 51, 234, 1)"></path><path d="M104.87 178.29 a102.18 102.18 0 1 0 204.36 0 a102.18 102.18 0 1 0 -204.36 0z" stroke="rgba(147, 51, 234, 1)"></path></g><defs><mask id="SvgjsMask1014"><rect width="1920" height="1080" fill="#ffffff"></rect></mask></defs></svg>