 <svg  version="1.0" xmlns="http://www.w3.org/2000/svg"  width="300.000000pt" height="300.000000pt" viewBox="0 0 300.000000 300.000000"  preserveAspectRatio="xMidYMid meet">  <g transform="translate(0.000000,300.000000) scale(0.100000,-0.100000)" fill="#4a4a4a" stroke="none"> <path d="M240 2756 c-142 -59 -211 -112 -226 -172 -4 -15 -3 -70 1 -123 10 -129 10 -138 -3 -196 -14 -69 2 -114 48 -137 32 -16 44 -16 119 -4 73 11 106 11 254 -4 163 -17 172 -19 194 -44 13 -15 23 -34 23 -42 0 -8 -22 -39 -48 -67 -98 -105 -112 -144 -133 -360 l-13 -128 -31 -13 c-44 -19 -75 -61 -75 -104 0 -26 14 -57 51 -113 l50 -77 -25 -49 c-31 -58 -33 -100 -6 -153 11 -22 20 -45 20 -51 0 -7 -18 -41 -41 -75 -46 -70 -57 -124 -39 -178 23 -72 82 -116 171 -131 56 -9 84 -37 136 -137 49 -97 83 -127 179 -164 81 -31 112 -15 213 106 34 41 62 61 120 88 l76 36 125 -5 c202 -6 250 -3 311 20 81 31 161 92 203 155 42 63 86 103 124 112 106 26 162 94 182 220 10 63 15 73 60 119 27 28 54 63 59 78 24 64 6 140 -45 188 -13 12 -24 33 -24 46 0 20 64 164 180 405 47 99 81 126 241 199 136 62 143 67 224 150 111 115 119 158 49 265 -55 84 -99 96 -254 69 -123 -22 -149 -20 -206 16 -113 73 -151 80 -269 53 l-70 -16 -170 64 c-184 71 -346 122 -437 138 -70 13 -221 -1 -323 -30 -91 -26 -144 -25 -309 6 l-138 26 -145 -16 -146 -16 -36 24 c-76 52 -118 57 -201 22z m182 -47 l49 -32 147 14 c135 13 156 13 257 -4 233 -39 221 -39 400 2 197 45 345 20 683 -115 160 -64 196 -70 283 -50 91 22 130 12 254 -63 51 -30 75 -31 206 -9 126 21 128 21 161 2 50 -30 96 -104 93 -151 -3 -50 -7 -58 -85 -139 -65 -67 -91 -83 -285 -169 -90 -39 -142 -96 -198 -215 -194 -413 -186 -387 -138 -442 40 -46 51 -71 51 -113 0 -46 -12 -68 -71 -131 -39 -42 -49 -60 -54 -100 -18 -129 -60 -189 -150 -214 -58 -16 -103 -54 -151 -125 -74 -112 -206 -176 -345 -168 -41 2 -121 5 -179 6 -102 1 -107 0 -181 -35 -73 -36 -121 -78 -179 -155 -35 -48 -80 -60 -138 -37 -81 30 -111 56 -149 124 -77 140 -107 168 -198 185 -78 14 -125 69 -125 147 0 33 9 56 36 97 43 64 53 115 30 159 -21 42 -20 85 4 132 29 56 25 77 -25 152 -57 86 -61 130 -13 156 68 37 70 43 99 287 14 117 28 149 103 233 67 75 73 112 28 162 -29 34 -56 40 -252 55 -47 4 -88 9 -93 12 -4 2 -49 -1 -100 -8 -109 -14 -138 -9 -162 27 -16 25 -16 30 -1 76 20 63 20 105 0 185 -29 116 12 183 150 249 117 55 167 58 238 13z"/> <path d="M234 2685 c-27 -14 -54 -25 -60 -25 -6 0 -31 -18 -55 -39 l-44 -39 3 -88 c6 -163 6 -209 -2 -255 -11 -64 5 -73 105 -56 59 10 97 10 184 1 61 -7 140 -13 178 -13 37 -1 67 -5 67 -11 0 -5 9 -10 19 -10 23 0 68 -51 78 -88 3 -14 1 -44 -5 -66 -10 -37 -9 -43 10 -59 20 -17 51 -18 490 -15 367 2 469 0 473 -9 3 -10 -100 -13 -498 -14 -276 0 -514 -2 -529 -3 -64 -4 -88 -64 -113 -281 -8 -77 -20 -149 -26 -160 -5 -11 -26 -29 -46 -40 -58 -32 -59 -52 -2 -141 37 -58 49 -88 49 -116 0 -22 5 -41 13 -44 7 -2 96 -6 197 -8 102 -2 187 -5 190 -6 3 -1 8 -2 12 -1 4 0 5 -6 2 -14 -5 -12 -33 -15 -160 -16 -85 0 -180 0 -211 -1 -32 0 -64 -5 -71 -10 -15 -13 -16 -43 0 -71 23 -42 20 -97 -9 -146 -14 -25 -31 -49 -37 -53 -6 -4 -11 -35 -11 -69 0 -57 2 -63 34 -90 19 -15 38 -26 43 -23 4 3 14 2 20 -3 7 -4 18 -9 23 -10 30 -7 42 -11 60 -18 33 -14 85 -77 112 -135 35 -76 57 -101 111 -127 85 -41 95 -37 192 77 34 40 63 62 117 87 39 18 80 34 90 36 10 1 23 6 29 9 6 4 48 5 95 2 225 -13 304 -9 329 16 3 3 11 6 18 8 46 9 116 73 179 165 32 47 68 76 100 82 10 2 19 4 21 5 1 2 7 4 12 5 6 1 13 4 18 5 4 1 10 2 13 2 3 -1 20 13 36 31 33 34 66 123 65 170 -2 60 23 57 -543 57 -494 0 -549 3 -525 27 4 4 256 7 562 8 l556 1 39 41 c53 58 53 94 -1 159 -54 65 -54 105 -1 217 22 45 64 135 95 200 31 64 56 125 56 135 0 40 -14 42 -287 42 -204 0 -263 3 -263 13 0 9 62 11 282 9 155 -1 287 -1 292 1 6 3 16 6 21 7 6 1 26 15 45 32 51 42 51 42 98 57 23 8 47 20 53 28 6 7 19 13 28 13 9 0 22 5 27 10 6 6 21 13 35 15 13 3 25 9 27 15 2 6 8 8 12 5 10 -6 103 83 144 138 33 43 32 84 -5 143 -29 48 -56 56 -137 43 -37 -6 -104 -13 -150 -16 l-82 -5 -72 43 c-40 24 -75 44 -78 45 -3 0 -21 4 -40 8 -20 4 -54 2 -80 -4 -75 -20 -172 -16 -203 8 -7 5 -34 17 -62 26 -27 10 -69 26 -92 37 -24 10 -50 19 -58 19 -8 0 -23 4 -33 9 -9 5 -48 18 -87 30 -38 12 -86 27 -105 33 -94 30 -246 31 -340 1 -36 -11 -78 -24 -94 -27 -33 -8 -149 -9 -181 -2 -188 42 -263 48 -365 30 -19 -3 -67 -8 -106 -10 -66 -3 -75 -1 -115 26 -56 38 -108 39 -175 5z m148 -20 c56 -38 97 -42 249 -26 136 14 139 13 277 -13 174 -32 206 -32 328 1 79 21 121 26 209 26 98 0 123 -4 225 -35 63 -20 187 -64 275 -98 l160 -62 75 7 c155 15 179 12 245 -28 97 -61 118 -64 263 -40 82 13 133 17 144 12 25 -13 68 -80 68 -104 0 -12 -29 -52 -64 -91 -60 -65 -72 -74 -202 -133 -77 -35 -155 -76 -175 -92 l-37 -29 -290 0 c-160 0 -298 -3 -306 -6 -26 -10 -38 -41 -26 -64 10 -19 21 -20 285 -20 151 0 275 -2 275 -4 0 -2 -45 -100 -100 -217 -55 -118 -100 -227 -100 -242 0 -38 26 -96 57 -129 35 -37 33 -72 -8 -114 l-33 -34 -556 0 c-419 0 -559 -3 -568 -12 -17 -17 -15 -42 6 -62 17 -15 65 -16 542 -14 l522 3 -6 -49 c-3 -27 -16 -70 -28 -95 -21 -42 -29 -48 -87 -69 -86 -30 -114 -53 -167 -133 -44 -66 -75 -93 -159 -134 -36 -17 -62 -19 -250 -20 l-210 0 -77 -38 c-78 -38 -123 -75 -189 -157 l-35 -44 -41 12 c-60 18 -88 44 -134 130 -66 121 -113 161 -208 177 -98 16 -117 84 -51 186 52 81 58 116 30 173 -12 25 -21 48 -21 51 1 4 96 6 211 5 222 -1 250 4 250 43 0 44 -13 47 -222 47 l-198 0 0 43 c0 35 -9 55 -45 107 -25 35 -45 71 -45 80 0 9 14 23 32 31 58 26 67 50 88 232 15 130 24 176 41 207 l23 40 532 0 c523 0 534 0 544 20 14 26 -2 58 -33 65 -12 3 -232 4 -490 3 -257 -2 -467 0 -467 4 0 4 5 10 11 14 19 11 6 116 -19 151 -34 49 -75 61 -258 79 -138 14 -185 15 -258 6 -50 -6 -92 -9 -95 -6 -3 2 3 33 12 69 16 58 16 70 2 135 -31 147 -15 181 107 239 99 47 122 49 170 16z"/> <path d="M274 2650 c-35 -23 -65 -80 -67 -131 -1 -19 5 -69 12 -112 11 -62 12 -86 2 -118 -7 -23 -10 -43 -7 -46 3 -3 8 0 10 8 26 80 26 87 11 158 -8 40 -15 86 -15 102 0 43 25 96 61 130 37 34 35 36 -7 9z"/> <path d="M1738 1913 c6 -2 18 -2 25 0 6 3 1 5 -13 5 -14 0 -19 -2 -12 -5z"/> <path d="M710 1827 c-8 -12 -13 -30 -11 -39 1 -10 -1 -18 -6 -18 -4 0 -9 -33 -11 -73 -5 -144 -20 -220 -48 -244 -14 -13 -32 -23 -40 -23 -8 0 -14 -1 -14 -2 0 -2 -7 -21 -14 -43 -16 -44 -9 -67 43 -135 15 -19 32 -46 38 -60 8 -17 12 -20 12 -8 1 9 -19 47 -44 84 -27 40 -45 78 -45 95 0 30 30 69 53 69 36 0 49 38 67 197 10 87 23 171 29 187 14 36 10 42 -9 13z"/> <path d="M888 1609 c-14 -8 -18 -24 -18 -78 0 -77 13 -97 55 -87 24 6 25 10 25 81 0 63 -3 76 -19 85 -23 12 -22 12 -43 -1z m42 -84 c0 -42 -3 -55 -15 -55 -15 0 -18 9 -18 55 0 46 3 55 18 55 12 0 15 -13 15 -55z"/> <path d="M1828 1609 c-14 -8 -18 -24 -18 -77 0 -73 10 -92 47 -92 30 0 43 28 43 89 0 38 -5 56 -20 71 -23 23 -28 24 -52 9z m38 -115 c-4 -14 -12 -24 -19 -21 -17 5 -21 71 -6 99 13 22 13 22 22 -15 5 -20 6 -49 3 -63z"/> <path d="M1225 1510 c-26 -28 -8 -61 51 -96 65 -38 143 -38 208 0 51 30 70 57 61 86 -9 28 -42 35 -72 13 -75 -53 -102 -55 -164 -13 -52 35 -60 36 -84 10z m278 -48 c-27 -37 -102 -56 -161 -42 -52 13 -92 37 -92 56 0 16 26 19 35 3 19 -29 121 -43 150 -19 8 7 15 9 15 4 0 -5 6 -2 13 7 12 16 47 29 56 22 3 -2 -4 -16 -16 -31z"/> <path d="M980 1086 c0 -9 30 -14 35 -6 4 6 -3 10 -14 10 -12 0 -21 -2 -21 -4z"/> <path d="M610 1017 c0 -4 7 -21 15 -37 22 -43 14 -87 -33 -164 -35 -58 -41 -75 -37 -108 5 -39 24 -78 37 -78 4 0 0 12 -8 28 -25 48 -17 91 31 172 25 41 45 83 45 95 0 19 -49 110 -50 92z"/> <path d="M719 565 c24 -8 47 -17 50 -22 3 -4 15 -13 25 -19 11 -5 40 -49 65 -97 25 -48 49 -87 53 -87 10 0 -43 106 -79 161 -27 41 -93 79 -134 78 -17 0 -11 -4 20 -14z"/> <path d="M161 1894 c0 -11 3 -14 6 -6 3 7 2 16 -1 19 -3 4 -6 -2 -5 -13z"/> <path d="M2742 1677 c-29 -12 -64 -33 -77 -45 -48 -47 -52 -135 -8 -185 18 -20 117 -69 164 -80 38 -10 88 8 126 45 65 63 63 151 -4 220 -41 43 -88 68 -125 68 -13 -1 -47 -11 -76 -23z m165 -51 c21 -19 46 -50 57 -70 16 -30 17 -39 6 -66 -7 -16 -28 -44 -47 -60 -45 -40 -98 -40 -181 0 -79 38 -99 76 -79 151 10 38 87 77 154 78 47 1 57 -3 90 -33z"/> <path d="M2825 1633 c-92 -16 -135 -45 -135 -93 0 -29 36 -84 50 -75 4 3 13 -2 20 -10 7 -8 20 -15 30 -15 9 0 20 -3 23 -7 18 -17 61 -7 88 20 38 38 39 87 3 131 -35 41 -55 53 -79 49z m54 -58 c38 -44 40 -77 5 -104 -34 -26 -35 -26 -105 5 -42 19 -61 34 -65 50 -8 31 1 43 50 65 59 27 80 24 115 -16z"/> </g> </svg> 